<mxfile host="app.diagrams.net" modified="2022-03-12T16:49:50.762Z" agent="5.0 (Windows NT 10.0; Win64; x64) AppleWebKit/537.36 (KHTML, like Gecko) Chrome/99.0.4844.51 Safari/537.36 Edg/99.0.1150.36" etag="tKdmX-jHlxO6kdnU9hkh" version="17.1.2" type="github">
  <diagram id="pmPVxWBvfErrvhI0WtuU" name="DDC1">
    <mxGraphModel dx="3667" dy="2385" grid="1" gridSize="10" guides="1" tooltips="1" connect="1" arrows="1" fold="1" page="1" pageScale="1" pageWidth="827" pageHeight="1169" math="0" shadow="0">
      <root>
        <mxCell id="0" />
        <mxCell id="1" parent="0" />
        <mxCell id="7gchvuawiLb_LsRf-Ycw-1" value="LaissezPasser" style="swimlane;fontStyle=0;align=center;verticalAlign=top;childLayout=stackLayout;horizontal=1;startSize=26;horizontalStack=0;resizeParent=1;resizeLast=0;collapsible=1;marginBottom=0;rounded=0;shadow=0;strokeWidth=1;fillColor=#7EA6E0;" vertex="1" parent="1">
          <mxGeometry x="160" y="-720" width="560" height="530" as="geometry">
            <mxRectangle x="130" y="380" width="160" height="26" as="alternateBounds" />
          </mxGeometry>
        </mxCell>
        <mxCell id="7gchvuawiLb_LsRf-Ycw-2" value="- nomLP : String&#xa;- prenomLP : String&#xa;- estValide : boolean&#xa;- estArchivee : boolean&#xa;- estDemande : boolean&#xa;- estImprimee : boolean" style="text;align=left;verticalAlign=top;spacingLeft=4;spacingRight=4;overflow=hidden;rotatable=0;points=[[0,0.5],[1,0.5]];portConstraint=eastwest;" vertex="1" parent="7gchvuawiLb_LsRf-Ycw-1">
          <mxGeometry y="26" width="560" height="134" as="geometry" />
        </mxCell>
        <mxCell id="7gchvuawiLb_LsRf-Ycw-125" value="1" style="endArrow=open;html=1;endSize=12;startArrow=diamondThin;startSize=14;startFill=0;edgeStyle=orthogonalEdgeStyle;align=left;verticalAlign=bottom;rounded=0;entryX=0;entryY=0.285;entryDx=0;entryDy=0;entryPerimeter=0;" edge="1" parent="7gchvuawiLb_LsRf-Ycw-1" target="7gchvuawiLb_LsRf-Ycw-113">
          <mxGeometry x="0.6672" y="10" relative="1" as="geometry">
            <mxPoint x="560" y="180" as="sourcePoint" />
            <mxPoint x="710" y="180" as="targetPoint" />
            <mxPoint as="offset" />
          </mxGeometry>
        </mxCell>
        <mxCell id="7gchvuawiLb_LsRf-Ycw-3" value="" style="line;html=1;strokeWidth=1;align=left;verticalAlign=middle;spacingTop=-1;spacingLeft=3;spacingRight=3;rotatable=0;labelPosition=right;points=[];portConstraint=eastwest;" vertex="1" parent="7gchvuawiLb_LsRf-Ycw-1">
          <mxGeometry y="160" width="560" height="8" as="geometry" />
        </mxCell>
        <mxCell id="7gchvuawiLb_LsRf-Ycw-4" value="+ LaissezPasser(in nomLP : String, in prenomLP : String, in estValide : boolean, &#xa;    in estArchivee : boolean, in estDemande : boolean, in estImprimee : boolean)                               CO&#xa;&#xa;+ getNomLP() : String&#xa;+ getPrenomLP() : String&#xa;+ getEstValide() : boolean&#xa;+ getEstArchivee() : boolean &#xa;+ getEstDemande() : boolean &#xa;+ getEstImprimee() : boolean &#xa;&#xa;+ setNomLP(in nomLP : String) : void&#xa;+ setPrenomLP(in prenomLP : String) : void&#xa;+ setEstValide(in estValide : boolean) : void&#xa;+ setEstArchivee(in estArchivee : boolean) : void&#xa;+ setEstDemande(in estDemande : boolean) : void&#xa;+ setEstImprimee(in estImprimee : boolean) : void&#xa;&#xa;+ display() : void&#xa;+ modifier() : void&#xa;+ supprimer() : void&#xa;+ annulerLP() : void&#xa;+ rechercher() : void&#xa;" style="text;align=left;verticalAlign=top;spacingLeft=4;spacingRight=4;overflow=hidden;rotatable=0;points=[[0,0.5],[1,0.5]];portConstraint=eastwest;" vertex="1" parent="7gchvuawiLb_LsRf-Ycw-1">
          <mxGeometry y="168" width="560" height="362" as="geometry" />
        </mxCell>
        <mxCell id="7gchvuawiLb_LsRf-Ycw-7" value="Participant" style="swimlane;fontStyle=0;align=center;verticalAlign=top;childLayout=stackLayout;horizontal=1;startSize=26;horizontalStack=0;resizeParent=1;resizeLast=0;collapsible=1;marginBottom=0;rounded=0;shadow=0;strokeWidth=1;fillColor=#FFD966;" vertex="1" parent="1">
          <mxGeometry x="280" y="40" width="320" height="408" as="geometry">
            <mxRectangle x="330" y="50" width="160" height="26" as="alternateBounds" />
          </mxGeometry>
        </mxCell>
        <mxCell id="7gchvuawiLb_LsRf-Ycw-8" value="# profil : String&#xa;# matricule : String&#xa;" style="text;align=left;verticalAlign=top;spacingLeft=4;spacingRight=4;overflow=hidden;rotatable=0;points=[[0,0.5],[1,0.5]];portConstraint=eastwest;rounded=0;shadow=0;html=0;" vertex="1" parent="7gchvuawiLb_LsRf-Ycw-7">
          <mxGeometry y="26" width="320" height="54" as="geometry" />
        </mxCell>
        <mxCell id="7gchvuawiLb_LsRf-Ycw-9" value="" style="line;html=1;strokeWidth=1;align=left;verticalAlign=middle;spacingTop=-1;spacingLeft=3;spacingRight=3;rotatable=0;labelPosition=right;points=[];portConstraint=eastwest;" vertex="1" parent="7gchvuawiLb_LsRf-Ycw-7">
          <mxGeometry y="80" width="320" height="28" as="geometry" />
        </mxCell>
        <mxCell id="7gchvuawiLb_LsRf-Ycw-10" value="+ Participant(in profil : String, in matricule : String)        CO&#xa;&#xa;+ getProfil() : String&#xa;+ getMatricule() : String&#xa;&#xa;+ setProfil(profil : String) : void&#xa;+ setMatricule(matricule : String) : void&#xa;&#xa;+ supprimer() : void&#xa;+ afficher() : void&#xa;&#xa;" style="text;align=left;verticalAlign=top;spacingLeft=4;spacingRight=4;overflow=hidden;rotatable=0;points=[[0,0.5],[1,0.5]];portConstraint=eastwest;" vertex="1" parent="7gchvuawiLb_LsRf-Ycw-7">
          <mxGeometry y="108" width="320" height="300" as="geometry" />
        </mxCell>
        <mxCell id="7gchvuawiLb_LsRf-Ycw-11" value="PersonneMorale" style="swimlane;fontStyle=0;align=center;verticalAlign=top;childLayout=stackLayout;horizontal=1;startSize=26;horizontalStack=0;resizeParent=1;resizeLast=0;collapsible=1;marginBottom=0;rounded=0;shadow=0;strokeWidth=1;fillColor=#FFD966;" vertex="1" parent="1">
          <mxGeometry x="837" y="-80" width="363" height="320" as="geometry">
            <mxRectangle x="330" y="50" width="160" height="26" as="alternateBounds" />
          </mxGeometry>
        </mxCell>
        <mxCell id="7gchvuawiLb_LsRf-Ycw-12" value="- nom : String&#xa;- prenom : String&#xa;- dateDeNaissance : String&#xa;" style="text;align=left;verticalAlign=top;spacingLeft=4;spacingRight=4;overflow=hidden;rotatable=0;points=[[0,0.5],[1,0.5]];portConstraint=eastwest;rounded=0;shadow=0;html=0;" vertex="1" parent="7gchvuawiLb_LsRf-Ycw-11">
          <mxGeometry y="26" width="363" height="64" as="geometry" />
        </mxCell>
        <mxCell id="7gchvuawiLb_LsRf-Ycw-13" value="" style="line;html=1;strokeWidth=1;align=left;verticalAlign=middle;spacingTop=-1;spacingLeft=3;spacingRight=3;rotatable=0;labelPosition=right;points=[];portConstraint=eastwest;" vertex="1" parent="7gchvuawiLb_LsRf-Ycw-11">
          <mxGeometry y="90" width="363" height="8" as="geometry" />
        </mxCell>
        <mxCell id="7gchvuawiLb_LsRf-Ycw-14" value="+ PersonneMorale(in nom : String, in prenom: String, &#xa;in dateDeNaissance: String)                                                    CO&#xa;&#xa;+ getNom() : String&#xa;+ getPrenom() : String&#xa;+ getDateDeNaissance() : String&#xa;&#xa;+ setNom(in nom : String) : void&#xa;+ setPrenom(in prenom : String) : void&#xa;+ setDateDeNaissance(in dateDeNaissance : String) : void&#xa;&#xa;+ display() : void&#xa;+ modifier() : void" style="text;align=left;verticalAlign=top;spacingLeft=4;spacingRight=4;overflow=hidden;rotatable=0;points=[[0,0.5],[1,0.5]];portConstraint=eastwest;" vertex="1" parent="7gchvuawiLb_LsRf-Ycw-11">
          <mxGeometry y="98" width="363" height="222" as="geometry" />
        </mxCell>
        <mxCell id="7gchvuawiLb_LsRf-Ycw-15" value="Entreprise" style="swimlane;fontStyle=0;align=center;verticalAlign=top;childLayout=stackLayout;horizontal=1;startSize=26;horizontalStack=0;resizeParent=1;resizeLast=0;collapsible=1;marginBottom=0;rounded=0;shadow=0;strokeWidth=1;fillColor=#FFD966;" vertex="1" parent="1">
          <mxGeometry x="-240" y="800" width="400" height="240" as="geometry">
            <mxRectangle x="130" y="380" width="160" height="26" as="alternateBounds" />
          </mxGeometry>
        </mxCell>
        <mxCell id="7gchvuawiLb_LsRf-Ycw-16" value="- nomEntreprise : String&#xa;- numeroImmatriculation : String" style="text;align=left;verticalAlign=top;spacingLeft=4;spacingRight=4;overflow=hidden;rotatable=0;points=[[0,0.5],[1,0.5]];portConstraint=eastwest;" vertex="1" parent="7gchvuawiLb_LsRf-Ycw-15">
          <mxGeometry y="26" width="400" height="44" as="geometry" />
        </mxCell>
        <mxCell id="7gchvuawiLb_LsRf-Ycw-17" value="" style="line;html=1;strokeWidth=1;align=left;verticalAlign=middle;spacingTop=-1;spacingLeft=3;spacingRight=3;rotatable=0;labelPosition=right;points=[];portConstraint=eastwest;" vertex="1" parent="7gchvuawiLb_LsRf-Ycw-15">
          <mxGeometry y="70" width="400" height="8" as="geometry" />
        </mxCell>
        <mxCell id="7gchvuawiLb_LsRf-Ycw-18" value="+ Entreprise(in nom : String, in numeroImmatriculation : String)           CO&#xa;&#xa;+ getNom() : String&#xa;+ getNumeroImmatriculation() : String&#xa;&#xa;+ setNomEntreprise(in nomEntreprise : String) : void&#xa;+ setNumeroImmatriculation(in numeroImmatriculation : String) : void&#xa;&#xa;+ modifier() : void &#xa;+ display() : void" style="text;align=left;verticalAlign=top;spacingLeft=4;spacingRight=4;overflow=hidden;rotatable=0;points=[[0,0.5],[1,0.5]];portConstraint=eastwest;" vertex="1" parent="7gchvuawiLb_LsRf-Ycw-15">
          <mxGeometry y="78" width="400" height="162" as="geometry" />
        </mxCell>
        <mxCell id="7gchvuawiLb_LsRf-Ycw-19" value="Delegation" style="swimlane;fontStyle=0;align=center;verticalAlign=top;childLayout=stackLayout;horizontal=1;startSize=26;horizontalStack=0;resizeParent=1;resizeLast=0;collapsible=1;marginBottom=0;rounded=0;shadow=0;strokeWidth=1;fillColor=#FFD966;" vertex="1" parent="1">
          <mxGeometry x="-630" y="800" width="350" height="240" as="geometry">
            <mxRectangle x="130" y="380" width="160" height="26" as="alternateBounds" />
          </mxGeometry>
        </mxCell>
        <mxCell id="7gchvuawiLb_LsRf-Ycw-20" value="- pays : String&#xa;- nombreDePersonnes : int" style="text;align=left;verticalAlign=top;spacingLeft=4;spacingRight=4;overflow=hidden;rotatable=0;points=[[0,0.5],[1,0.5]];portConstraint=eastwest;" vertex="1" parent="7gchvuawiLb_LsRf-Ycw-19">
          <mxGeometry y="26" width="350" height="44" as="geometry" />
        </mxCell>
        <mxCell id="7gchvuawiLb_LsRf-Ycw-21" value="" style="line;html=1;strokeWidth=1;align=left;verticalAlign=middle;spacingTop=-1;spacingLeft=3;spacingRight=3;rotatable=0;labelPosition=right;points=[];portConstraint=eastwest;" vertex="1" parent="7gchvuawiLb_LsRf-Ycw-19">
          <mxGeometry y="70" width="350" height="8" as="geometry" />
        </mxCell>
        <mxCell id="7gchvuawiLb_LsRf-Ycw-22" value="+ Delegation(in pays : String, in nombreDePersonnes : int)   CO&#xa;&#xa;+ getPays() : String&#xa;+ getNombreDePersonnes() : int&#xa;&#xa;+ setPays(in pays : String) : void&#xa;+ setNombreDePersonne(in nombreDePersonne : String) : void&#xa;&#xa;+ modifier() : void &#xa;+ display() : void&#xa;&#xa;&#xa;" style="text;align=left;verticalAlign=top;spacingLeft=4;spacingRight=4;overflow=hidden;rotatable=0;points=[[0,0.5],[1,0.5]];portConstraint=eastwest;" vertex="1" parent="7gchvuawiLb_LsRf-Ycw-19">
          <mxGeometry y="78" width="350" height="162" as="geometry" />
        </mxCell>
        <mxCell id="7gchvuawiLb_LsRf-Ycw-23" value="Commercant" style="swimlane;fontStyle=0;align=center;verticalAlign=top;childLayout=stackLayout;horizontal=1;startSize=26;horizontalStack=0;resizeParent=1;resizeLast=0;collapsible=1;marginBottom=0;rounded=0;shadow=0;strokeWidth=1;fillColor=#FFD966;" vertex="1" parent="1">
          <mxGeometry x="200" y="800" width="400" height="240" as="geometry">
            <mxRectangle x="130" y="380" width="160" height="26" as="alternateBounds" />
          </mxGeometry>
        </mxCell>
        <mxCell id="7gchvuawiLb_LsRf-Ycw-24" value="- activite : String&#xa;" style="text;align=left;verticalAlign=top;spacingLeft=4;spacingRight=4;overflow=hidden;rotatable=0;points=[[0,0.5],[1,0.5]];portConstraint=eastwest;" vertex="1" parent="7gchvuawiLb_LsRf-Ycw-23">
          <mxGeometry y="26" width="400" height="44" as="geometry" />
        </mxCell>
        <mxCell id="7gchvuawiLb_LsRf-Ycw-25" value="" style="line;html=1;strokeWidth=1;align=left;verticalAlign=middle;spacingTop=-1;spacingLeft=3;spacingRight=3;rotatable=0;labelPosition=right;points=[];portConstraint=eastwest;" vertex="1" parent="7gchvuawiLb_LsRf-Ycw-23">
          <mxGeometry y="70" width="400" height="8" as="geometry" />
        </mxCell>
        <mxCell id="7gchvuawiLb_LsRf-Ycw-26" value="+ Commercant(in activite : String)                                                     CO &#xa;&#xa;+ getActivite() : String   &#xa;                                                  &#xa;+ setActivite(in activite : String) : void&#xa;&#xa;+ modifier() : void&#xa;+ display() : void&#xa;" style="text;align=left;verticalAlign=top;spacingLeft=4;spacingRight=4;overflow=hidden;rotatable=0;points=[[0,0.5],[1,0.5]];portConstraint=eastwest;" vertex="1" parent="7gchvuawiLb_LsRf-Ycw-23">
          <mxGeometry y="78" width="400" height="162" as="geometry" />
        </mxCell>
        <mxCell id="7gchvuawiLb_LsRf-Ycw-27" value="Bateau" style="swimlane;fontStyle=0;align=center;verticalAlign=top;childLayout=stackLayout;horizontal=1;startSize=26;horizontalStack=0;resizeParent=1;resizeLast=0;collapsible=1;marginBottom=0;rounded=0;shadow=0;strokeWidth=1;fillColor=#FFD966;" vertex="1" parent="1">
          <mxGeometry x="837" y="800" width="363" height="280" as="geometry">
            <mxRectangle x="130" y="380" width="160" height="26" as="alternateBounds" />
          </mxGeometry>
        </mxCell>
        <mxCell id="7gchvuawiLb_LsRf-Ycw-28" value="- nomBateau : String&#xa;- tailleBateau : double&#xa;- pavillon : String" style="text;align=left;verticalAlign=top;spacingLeft=4;spacingRight=4;overflow=hidden;rotatable=0;points=[[0,0.5],[1,0.5]];portConstraint=eastwest;" vertex="1" parent="7gchvuawiLb_LsRf-Ycw-27">
          <mxGeometry y="26" width="363" height="54" as="geometry" />
        </mxCell>
        <mxCell id="7gchvuawiLb_LsRf-Ycw-29" value="" style="line;html=1;strokeWidth=1;align=left;verticalAlign=middle;spacingTop=-1;spacingLeft=3;spacingRight=3;rotatable=0;labelPosition=right;points=[];portConstraint=eastwest;" vertex="1" parent="7gchvuawiLb_LsRf-Ycw-27">
          <mxGeometry y="80" width="363" height="8" as="geometry" />
        </mxCell>
        <mxCell id="7gchvuawiLb_LsRf-Ycw-30" value="+ Bateau(in nomBateau : String, in tailleBateau : double, &#xa;    in pavillon : String)                                                    CO&#xa;&#xa;+ getNomBateau() : String&#xa;+ getTailleBateau() : double&#xa;+ getPavillon() : String&#xa;&#xa;+ setNomBateau(in nomBateau : String) : void&#xa;+ setTailleBateau(in tailleBateau: double) : void&#xa;+ setPavillon(in pavillon : String) : void&#xa;&#xa;+ display() : void&#xa;+ modifier() : void&#xa;" style="text;align=left;verticalAlign=top;spacingLeft=4;spacingRight=4;overflow=hidden;rotatable=0;points=[[0,0.5],[1,0.5]];portConstraint=eastwest;" vertex="1" parent="7gchvuawiLb_LsRf-Ycw-27">
          <mxGeometry y="88" width="363" height="192" as="geometry" />
        </mxCell>
        <mxCell id="7gchvuawiLb_LsRf-Ycw-31" value="FamilleAccueil" style="swimlane;fontStyle=0;align=center;verticalAlign=top;childLayout=stackLayout;horizontal=1;startSize=26;horizontalStack=0;resizeParent=1;resizeLast=0;collapsible=1;marginBottom=0;rounded=0;shadow=0;strokeWidth=1;fillColor=#FFD966;" vertex="1" parent="1">
          <mxGeometry x="837" y="520" width="363" height="240" as="geometry">
            <mxRectangle x="130" y="380" width="160" height="26" as="alternateBounds" />
          </mxGeometry>
        </mxCell>
        <mxCell id="7gchvuawiLb_LsRf-Ycw-32" value="- nombreDePlace : int" style="text;align=left;verticalAlign=top;spacingLeft=4;spacingRight=4;overflow=hidden;rotatable=0;points=[[0,0.5],[1,0.5]];portConstraint=eastwest;" vertex="1" parent="7gchvuawiLb_LsRf-Ycw-31">
          <mxGeometry y="26" width="363" height="54" as="geometry" />
        </mxCell>
        <mxCell id="7gchvuawiLb_LsRf-Ycw-33" value="" style="line;html=1;strokeWidth=1;align=left;verticalAlign=middle;spacingTop=-1;spacingLeft=3;spacingRight=3;rotatable=0;labelPosition=right;points=[];portConstraint=eastwest;" vertex="1" parent="7gchvuawiLb_LsRf-Ycw-31">
          <mxGeometry y="80" width="363" height="8" as="geometry" />
        </mxCell>
        <mxCell id="7gchvuawiLb_LsRf-Ycw-34" value="+ FamilleAccueil(in nombreDePlace : int)                         CO&#xa;&#xa;+ getNombreDePlace() : int&#xa;&#xa;+ setNombreDePlace (in nombreDePlace : int) : void&#xa;&#xa;+ display() : void&#xa;+ modifier() : void&#xa;" style="text;align=left;verticalAlign=top;spacingLeft=4;spacingRight=4;overflow=hidden;rotatable=0;points=[[0,0.5],[1,0.5]];portConstraint=eastwest;" vertex="1" parent="7gchvuawiLb_LsRf-Ycw-31">
          <mxGeometry y="88" width="363" height="152" as="geometry" />
        </mxCell>
        <mxCell id="7gchvuawiLb_LsRf-Ycw-35" value="Vip" style="swimlane;fontStyle=0;align=center;verticalAlign=top;childLayout=stackLayout;horizontal=1;startSize=26;horizontalStack=0;resizeParent=1;resizeLast=0;collapsible=1;marginBottom=0;rounded=0;shadow=0;strokeWidth=1;strokeColor=#000000;fillColor=#FFD966;" vertex="1" parent="1">
          <mxGeometry x="837" y="280" width="360" height="200" as="geometry">
            <mxRectangle x="130" y="380" width="160" height="26" as="alternateBounds" />
          </mxGeometry>
        </mxCell>
        <mxCell id="7gchvuawiLb_LsRf-Ycw-36" value="- isVIP : boolean" style="text;align=left;verticalAlign=top;spacingLeft=4;spacingRight=4;overflow=hidden;rotatable=0;points=[[0,0.5],[1,0.5]];portConstraint=eastwest;rounded=0;shadow=0;html=0;" vertex="1" parent="7gchvuawiLb_LsRf-Ycw-35">
          <mxGeometry y="26" width="360" height="34" as="geometry" />
        </mxCell>
        <mxCell id="7gchvuawiLb_LsRf-Ycw-37" value="" style="line;html=1;strokeWidth=1;align=left;verticalAlign=middle;spacingTop=-1;spacingLeft=3;spacingRight=3;rotatable=0;labelPosition=right;points=[];portConstraint=eastwest;" vertex="1" parent="7gchvuawiLb_LsRf-Ycw-35">
          <mxGeometry y="60" width="360" height="8" as="geometry" />
        </mxCell>
        <mxCell id="7gchvuawiLb_LsRf-Ycw-38" value="+ Vip(in isVip : boolean)                                                           CO&#xa;&#xa;+ getIsVip() : boolean&#xa;&#xa;+ setIsVip(in isVip : boolean) : void&#xa;&#xa;+ display() : void&#xa;+ modifier() : void" style="text;align=left;verticalAlign=top;spacingLeft=4;spacingRight=4;overflow=hidden;rotatable=0;points=[[0,0.5],[1,0.5]];portConstraint=eastwest;" vertex="1" parent="7gchvuawiLb_LsRf-Ycw-35">
          <mxGeometry y="68" width="360" height="132" as="geometry" />
        </mxCell>
        <mxCell id="7gchvuawiLb_LsRf-Ycw-39" value="-représente" style="text;html=1;resizable=0;points=[];;align=center;verticalAlign=middle;labelBackgroundColor=none;rounded=0;shadow=0;strokeWidth=1;fontSize=12;" vertex="1" connectable="0" parent="1">
          <mxGeometry x="799.9966666666666" y="66.00428571428566" as="geometry">
            <mxPoint x="-9" y="1" as="offset" />
          </mxGeometry>
        </mxCell>
        <mxCell id="7gchvuawiLb_LsRf-Ycw-40" value="1" style="text;align=left;verticalAlign=top;spacingLeft=4;spacingRight=4;overflow=hidden;rotatable=0;points=[[0,0.5],[1,0.5]];portConstraint=eastwest;rounded=0;shadow=0;html=0;" vertex="1" parent="1">
          <mxGeometry x="600" y="78" width="20" height="26" as="geometry" />
        </mxCell>
        <mxCell id="7gchvuawiLb_LsRf-Ycw-41" value="1" style="text;align=left;verticalAlign=top;spacingLeft=4;spacingRight=4;overflow=hidden;rotatable=0;points=[[0,0.5],[1,0.5]];portConstraint=eastwest;rounded=0;shadow=0;html=0;" vertex="1" parent="1">
          <mxGeometry x="807" y="86" width="20" height="26" as="geometry" />
        </mxCell>
        <mxCell id="7gchvuawiLb_LsRf-Ycw-42" value="Inscription" style="swimlane;fontStyle=1;align=center;verticalAlign=top;childLayout=stackLayout;horizontal=1;startSize=26;horizontalStack=0;resizeParent=1;resizeParentMax=0;resizeLast=0;collapsible=1;marginBottom=0;fillColor=#B9E0A5;" vertex="1" parent="1">
          <mxGeometry x="-160" y="40" width="320" height="410" as="geometry" />
        </mxCell>
        <mxCell id="7gchvuawiLb_LsRf-Ycw-43" value="- adresseMail : String&lt;br&gt;- nomInscription : String&lt;br&gt;- prenomInscription : String&amp;nbsp;&lt;br&gt;- activiteInscription : String&amp;nbsp;&lt;br&gt;- motivation : String" style="text;strokeColor=none;fillColor=none;align=left;verticalAlign=top;spacingLeft=4;spacingRight=4;overflow=hidden;rotatable=0;points=[[0,0.5],[1,0.5]];portConstraint=eastwest;horizontal=1;treeFolding=0;treeMoving=0;enumerate=0;comic=0;part=0;dropTarget=0;autosize=0;html=1;perimeter=rectanglePerimeter;" vertex="1" parent="7gchvuawiLb_LsRf-Ycw-42">
          <mxGeometry y="26" width="320" height="94" as="geometry" />
        </mxCell>
        <mxCell id="7gchvuawiLb_LsRf-Ycw-44" value="" style="line;strokeWidth=1;fillColor=none;align=left;verticalAlign=middle;spacingTop=-1;spacingLeft=3;spacingRight=3;rotatable=0;labelPosition=right;points=[];portConstraint=eastwest;" vertex="1" parent="7gchvuawiLb_LsRf-Ycw-42">
          <mxGeometry y="120" width="320" height="12" as="geometry" />
        </mxCell>
        <mxCell id="7gchvuawiLb_LsRf-Ycw-45" value="+ Inscription(in adresseMail : String, &#xa;    in nomInscription : String, in prenomInscription : String,&#xa;    in activiteInscription : String, in motivation : String)    CO&#xa;&#xa;+ getAdresseMail() : String&#xa;+ getNomInscription () : String&#xa;+ getPrenomInscription() : String&#xa;+ getActiviteInscription() : String&#xa;+ getIdInscription() : String&#xa;&#xa;+ setAdresseMail(in adresseMail : String) : void&#xa;+ setNomInscription (in nomInscription : String) : void&#xa;+ setPrenomInscription(in prenomInscription: String) : void&#xa;+ setActiviteInscription(in activiteInscription : String) : void&#xa;+ setMotivation(in motivation : String) : void&#xa;&#xa;+ validerInscription() : void&#xa;+ supprimerInscription() : void" style="text;align=left;verticalAlign=top;spacingLeft=4;spacingRight=4;overflow=hidden;rotatable=0;points=[[0,0.5],[1,0.5]];portConstraint=eastwest;" vertex="1" parent="7gchvuawiLb_LsRf-Ycw-42">
          <mxGeometry y="132" width="320" height="278" as="geometry" />
        </mxCell>
        <mxCell id="7gchvuawiLb_LsRf-Ycw-46" value="Compte" style="swimlane;fontStyle=1;align=center;verticalAlign=top;childLayout=stackLayout;horizontal=1;startSize=26;horizontalStack=0;resizeParent=1;resizeParentMax=0;resizeLast=0;collapsible=1;marginBottom=0;fillColor=#B9E0A5;" vertex="1" parent="1">
          <mxGeometry x="-600" y="360" width="400" height="320" as="geometry" />
        </mxCell>
        <mxCell id="7gchvuawiLb_LsRf-Ycw-47" value="- idCompte: String&#xa;- motDePasse : String&#xa;- mailCompte : String" style="text;strokeColor=none;fillColor=none;align=left;verticalAlign=top;spacingLeft=4;spacingRight=4;overflow=hidden;rotatable=0;points=[[0,0.5],[1,0.5]];portConstraint=eastwest;" vertex="1" parent="7gchvuawiLb_LsRf-Ycw-46">
          <mxGeometry y="26" width="400" height="54" as="geometry" />
        </mxCell>
        <mxCell id="7gchvuawiLb_LsRf-Ycw-48" value="" style="line;strokeWidth=1;fillColor=none;align=left;verticalAlign=middle;spacingTop=-1;spacingLeft=3;spacingRight=3;rotatable=0;labelPosition=right;points=[];portConstraint=eastwest;" vertex="1" parent="7gchvuawiLb_LsRf-Ycw-46">
          <mxGeometry y="80" width="400" height="8" as="geometry" />
        </mxCell>
        <mxCell id="7gchvuawiLb_LsRf-Ycw-49" value="+ Compte(in idCompte: String, in motDePasse : &#xa;    String, in mailCompte : String)                                                         CO&#xa;&#xa;+ getIdCompte() : String&#xa;+ getMotDePasse() : Sting&#xa;+ getMailCompte() : Sting&#xa;&#xa;+ setMotDePasse(in motDePasse : String) : void&#xa;+ setIdCompte(in idCompte : String) : void&#xa;+ setMailCompte(in mailCompte : String) : void&#xa;&#xa;+ connexionCompte() : void&#xa;+ modifierCompte() : void&#xa;+ supprimerCompte() : void&#xa;+ deconnexionCompte() : void" style="text;strokeColor=none;fillColor=none;align=left;verticalAlign=top;spacingLeft=4;spacingRight=4;overflow=hidden;rotatable=0;points=[[0,0.5],[1,0.5]];portConstraint=eastwest;" vertex="1" parent="7gchvuawiLb_LsRf-Ycw-46">
          <mxGeometry y="88" width="400" height="232" as="geometry" />
        </mxCell>
        <mxCell id="7gchvuawiLb_LsRf-Ycw-50" value="&lt;br&gt;" style="endArrow=block;endSize=16;endFill=0;html=1;rounded=0;exitX=0.54;exitY=-0.011;exitDx=0;exitDy=0;exitPerimeter=0;entryX=0.125;entryY=1.001;entryDx=0;entryDy=0;entryPerimeter=0;" edge="1" parent="1" source="7gchvuawiLb_LsRf-Ycw-19" target="7gchvuawiLb_LsRf-Ycw-10">
          <mxGeometry x="-0.125" y="-40" width="160" relative="1" as="geometry">
            <mxPoint x="-768.9599609375" y="720" as="sourcePoint" />
            <mxPoint x="320" y="450" as="targetPoint" />
            <mxPoint as="offset" />
            <Array as="points">
              <mxPoint x="-440" y="720" />
              <mxPoint x="320" y="720" />
            </Array>
          </mxGeometry>
        </mxCell>
        <mxCell id="7gchvuawiLb_LsRf-Ycw-51" value="&lt;br&gt;" style="endArrow=block;endSize=16;endFill=0;html=1;rounded=0;exitX=0.5;exitY=0;exitDx=0;exitDy=0;entryX=0.25;entryY=1.001;entryDx=0;entryDy=0;entryPerimeter=0;" edge="1" parent="1" source="7gchvuawiLb_LsRf-Ycw-15" target="7gchvuawiLb_LsRf-Ycw-10">
          <mxGeometry x="-0.125" y="-40" width="160" relative="1" as="geometry">
            <mxPoint x="-745" y="731" as="sourcePoint" />
            <mxPoint x="360" y="450" as="targetPoint" />
            <mxPoint as="offset" />
            <Array as="points">
              <mxPoint x="-40" y="760" />
              <mxPoint x="360" y="760" />
            </Array>
          </mxGeometry>
        </mxCell>
        <mxCell id="7gchvuawiLb_LsRf-Ycw-52" value="&lt;br&gt;" style="endArrow=block;endSize=16;endFill=0;html=1;rounded=0;exitX=0.5;exitY=0;exitDx=0;exitDy=0;entryX=0.375;entryY=1.001;entryDx=0;entryDy=0;entryPerimeter=0;" edge="1" parent="1" source="7gchvuawiLb_LsRf-Ycw-23" target="7gchvuawiLb_LsRf-Ycw-10">
          <mxGeometry x="-0.125" y="-40" width="160" relative="1" as="geometry">
            <mxPoint x="-735" y="741" as="sourcePoint" />
            <mxPoint x="400" y="450" as="targetPoint" />
            <mxPoint as="offset" />
          </mxGeometry>
        </mxCell>
        <mxCell id="7gchvuawiLb_LsRf-Ycw-53" value="&lt;br&gt;" style="endArrow=block;endSize=16;endFill=0;html=1;rounded=0;exitX=0.002;exitY=0.997;exitDx=0;exitDy=0;exitPerimeter=0;entryX=0.5;entryY=1;entryDx=0;entryDy=0;" edge="1" parent="1" source="7gchvuawiLb_LsRf-Ycw-28" target="7gchvuawiLb_LsRf-Ycw-7">
          <mxGeometry x="-0.125" y="-40" width="160" relative="1" as="geometry">
            <mxPoint x="820" y="880" as="sourcePoint" />
            <mxPoint x="440" y="450" as="targetPoint" />
            <mxPoint as="offset" />
            <Array as="points">
              <mxPoint x="770" y="880" />
              <mxPoint x="760" y="880" />
              <mxPoint x="760" y="720" />
              <mxPoint x="440" y="720" />
            </Array>
          </mxGeometry>
        </mxCell>
        <mxCell id="7gchvuawiLb_LsRf-Ycw-54" value="&lt;br&gt;" style="endArrow=block;endSize=16;endFill=0;html=1;rounded=0;exitX=-0.003;exitY=0.995;exitDx=0;exitDy=0;exitPerimeter=0;entryX=0.625;entryY=1;entryDx=0;entryDy=0;entryPerimeter=0;" edge="1" parent="1" source="7gchvuawiLb_LsRf-Ycw-32" target="7gchvuawiLb_LsRf-Ycw-10">
          <mxGeometry x="-0.125" y="-40" width="160" relative="1" as="geometry">
            <mxPoint x="826.0010000000002" y="598.7539999999999" as="sourcePoint" />
            <mxPoint x="490" y="450" as="targetPoint" />
            <mxPoint as="offset" />
            <Array as="points">
              <mxPoint x="480" y="600" />
            </Array>
          </mxGeometry>
        </mxCell>
        <mxCell id="7gchvuawiLb_LsRf-Ycw-55" value="&lt;br&gt;" style="endArrow=block;endSize=16;endFill=0;html=1;rounded=0;exitX=0;exitY=0.393;exitDx=0;exitDy=0;exitPerimeter=0;entryX=1.002;entryY=0.839;entryDx=0;entryDy=0;entryPerimeter=0;" edge="1" parent="1" source="7gchvuawiLb_LsRf-Ycw-38" target="7gchvuawiLb_LsRf-Ycw-10">
          <mxGeometry x="-0.125" y="-40" width="160" relative="1" as="geometry">
            <mxPoint x="1156.9999999999995" y="678.9999999999995" as="sourcePoint" />
            <mxPoint x="560" y="400" as="targetPoint" />
            <mxPoint as="offset" />
            <Array as="points" />
          </mxGeometry>
        </mxCell>
        <mxCell id="7gchvuawiLb_LsRf-Ycw-56" value="0 .. 1" style="text;align=left;verticalAlign=top;spacingLeft=4;spacingRight=4;overflow=hidden;rotatable=0;points=[[0,0.5],[1,0.5]];portConstraint=eastwest;rounded=0;shadow=0;html=0;" vertex="1" parent="1">
          <mxGeometry x="-296" y="317" width="70" height="26" as="geometry" />
        </mxCell>
        <mxCell id="7gchvuawiLb_LsRf-Ycw-57" value="" style="endArrow=open;endFill=1;endSize=12;html=1;rounded=0;exitX=1.005;exitY=0.233;exitDx=0;exitDy=0;exitPerimeter=0;" edge="1" parent="1" source="7gchvuawiLb_LsRf-Ycw-76">
          <mxGeometry width="160" relative="1" as="geometry">
            <mxPoint x="-290" y="79" as="sourcePoint" />
            <mxPoint x="-159.99999999999955" y="79.99999999999955" as="targetPoint" />
            <Array as="points">
              <mxPoint x="-160" y="80" />
            </Array>
          </mxGeometry>
        </mxCell>
        <mxCell id="7gchvuawiLb_LsRf-Ycw-58" value="" style="endArrow=open;endFill=1;endSize=12;html=1;rounded=0;entryX=1.003;entryY=0.235;entryDx=0;entryDy=0;entryPerimeter=0;" edge="1" parent="1" target="7gchvuawiLb_LsRf-Ycw-76">
          <mxGeometry width="160" relative="1" as="geometry">
            <mxPoint x="-159.99999999999955" y="79.99999999999955" as="sourcePoint" />
            <mxPoint x="-293.4100000000001" y="79.15200000000004" as="targetPoint" />
          </mxGeometry>
        </mxCell>
        <mxCell id="7gchvuawiLb_LsRf-Ycw-59" value="1" style="text;align=left;verticalAlign=top;spacingLeft=4;spacingRight=4;overflow=hidden;rotatable=0;points=[[0,0.5],[1,0.5]];portConstraint=eastwest;rounded=0;shadow=0;html=0;" vertex="1" parent="1">
          <mxGeometry x="-393" y="334" width="20" height="26" as="geometry" />
        </mxCell>
        <mxCell id="7gchvuawiLb_LsRf-Ycw-60" value="" style="endArrow=open;endFill=1;endSize=12;html=1;rounded=0;exitX=0.5;exitY=0;exitDx=0;exitDy=0;" edge="1" parent="1" source="7gchvuawiLb_LsRf-Ycw-46">
          <mxGeometry width="160" relative="1" as="geometry">
            <mxPoint x="-109.99999999999955" y="90" as="sourcePoint" />
            <mxPoint x="-399.99999999999955" y="279.99999999999955" as="targetPoint" />
          </mxGeometry>
        </mxCell>
        <mxCell id="7gchvuawiLb_LsRf-Ycw-61" value="" style="endArrow=open;endFill=1;endSize=12;html=1;rounded=0;entryX=0.5;entryY=0;entryDx=0;entryDy=0;" edge="1" parent="1" target="7gchvuawiLb_LsRf-Ycw-46">
          <mxGeometry width="160" relative="1" as="geometry">
            <mxPoint x="-399.99999999999955" y="279.99999999999955" as="sourcePoint" />
            <mxPoint x="-270.00000000000045" y="98.99999999999989" as="targetPoint" />
          </mxGeometry>
        </mxCell>
        <mxCell id="7gchvuawiLb_LsRf-Ycw-62" value="*" style="text;align=left;verticalAlign=top;spacingLeft=4;spacingRight=4;overflow=hidden;rotatable=0;points=[[0,0.5],[1,0.5]];portConstraint=eastwest;rounded=0;shadow=0;html=0;" vertex="1" parent="1">
          <mxGeometry x="-140" y="40" width="20" height="26" as="geometry" />
        </mxCell>
        <mxCell id="7gchvuawiLb_LsRf-Ycw-63" value="" style="endArrow=open;endFill=1;endSize=12;html=1;rounded=0;" edge="1" parent="1">
          <mxGeometry width="160" relative="1" as="geometry">
            <mxPoint x="280" y="199.99999999999955" as="sourcePoint" />
            <mxPoint x="-199.99999999999955" y="519.9999999999995" as="targetPoint" />
            <Array as="points">
              <mxPoint x="260" y="200" />
              <mxPoint x="260" y="520" />
            </Array>
          </mxGeometry>
        </mxCell>
        <mxCell id="7gchvuawiLb_LsRf-Ycw-64" value="" style="endArrow=open;endFill=1;endSize=12;html=1;rounded=0;entryX=0.75;entryY=0;entryDx=0;entryDy=0;exitX=0;exitY=0.5;exitDx=0;exitDy=0;" edge="1" parent="1" source="7gchvuawiLb_LsRf-Ycw-45" target="7gchvuawiLb_LsRf-Ycw-46">
          <mxGeometry width="160" relative="1" as="geometry">
            <mxPoint x="-109.99999999999955" y="90" as="sourcePoint" />
            <mxPoint x="-280.00000000000045" y="88.99999999999989" as="targetPoint" />
          </mxGeometry>
        </mxCell>
        <mxCell id="7gchvuawiLb_LsRf-Ycw-65" value="1" style="text;align=left;verticalAlign=top;spacingLeft=4;spacingRight=4;overflow=hidden;rotatable=0;points=[[0,0.5],[1,0.5]];portConstraint=eastwest;rounded=0;shadow=0;html=0;" vertex="1" parent="1">
          <mxGeometry x="-396" y="280" width="23" height="26" as="geometry" />
        </mxCell>
        <mxCell id="7gchvuawiLb_LsRf-Ycw-66" value="1" style="text;align=left;verticalAlign=top;spacingLeft=4;spacingRight=4;overflow=hidden;rotatable=0;points=[[0,0.5],[1,0.5]];portConstraint=eastwest;rounded=0;shadow=0;html=0;" vertex="1" parent="1">
          <mxGeometry x="-160" y="160" width="20" height="26" as="geometry" />
        </mxCell>
        <mxCell id="7gchvuawiLb_LsRf-Ycw-67" value="" style="endArrow=open;endFill=1;endSize=12;html=1;rounded=0;entryX=0;entryY=0.5;entryDx=0;entryDy=0;exitX=0.75;exitY=0;exitDx=0;exitDy=0;" edge="1" parent="1" source="7gchvuawiLb_LsRf-Ycw-46" target="7gchvuawiLb_LsRf-Ycw-45">
          <mxGeometry width="160" relative="1" as="geometry">
            <mxPoint x="-327.50000000000045" y="360" as="sourcePoint" />
            <mxPoint x="-109.99999999999955" y="247" as="targetPoint" />
          </mxGeometry>
        </mxCell>
        <mxCell id="7gchvuawiLb_LsRf-Ycw-68" value="1" style="text;align=left;verticalAlign=top;spacingLeft=4;spacingRight=4;overflow=hidden;rotatable=0;points=[[0,0.5],[1,0.5]];portConstraint=eastwest;rounded=0;shadow=0;html=0;" vertex="1" parent="1">
          <mxGeometry x="-280" y="40" width="20" height="26" as="geometry" />
        </mxCell>
        <mxCell id="7gchvuawiLb_LsRf-Ycw-69" value="1" style="text;align=left;verticalAlign=top;spacingLeft=4;spacingRight=4;overflow=hidden;rotatable=0;points=[[0,0.5],[1,0.5]];portConstraint=eastwest;rounded=0;shadow=0;html=0;" vertex="1" parent="1">
          <mxGeometry x="170" y="64" width="20" height="26" as="geometry" />
        </mxCell>
        <mxCell id="7gchvuawiLb_LsRf-Ycw-70" value="1" style="text;align=left;verticalAlign=top;spacingLeft=4;spacingRight=4;overflow=hidden;rotatable=0;points=[[0,0.5],[1,0.5]];portConstraint=eastwest;rounded=0;shadow=0;html=0;" vertex="1" parent="1">
          <mxGeometry x="250" y="60" width="20" height="26" as="geometry" />
        </mxCell>
        <mxCell id="7gchvuawiLb_LsRf-Ycw-71" value="1" style="text;align=left;verticalAlign=top;spacingLeft=4;spacingRight=4;overflow=hidden;rotatable=0;points=[[0,0.5],[1,0.5]];portConstraint=eastwest;rounded=0;shadow=0;html=0;" vertex="1" parent="1">
          <mxGeometry x="-192" y="317" width="70" height="26" as="geometry" />
        </mxCell>
        <mxCell id="7gchvuawiLb_LsRf-Ycw-72" value="" style="endArrow=open;endFill=1;endSize=12;html=1;rounded=0;entryX=0.25;entryY=0;entryDx=0;entryDy=0;exitX=0.823;exitY=0;exitDx=0;exitDy=0;exitPerimeter=0;" edge="1" parent="1" source="7gchvuawiLb_LsRf-Ycw-75" target="7gchvuawiLb_LsRf-Ycw-7">
          <mxGeometry width="160" relative="1" as="geometry">
            <mxPoint x="-388.5" y="40" as="sourcePoint" />
            <mxPoint x="360" y="50" as="targetPoint" />
            <Array as="points">
              <mxPoint x="-350" y="-80" />
              <mxPoint x="360" y="-80" />
              <mxPoint x="360" y="-30" />
            </Array>
          </mxGeometry>
        </mxCell>
        <mxCell id="7gchvuawiLb_LsRf-Ycw-73" value="1" style="text;align=left;verticalAlign=top;spacingLeft=4;spacingRight=4;overflow=hidden;rotatable=0;points=[[0,0.5],[1,0.5]];portConstraint=eastwest;rounded=0;shadow=0;html=0;" vertex="1" parent="1">
          <mxGeometry x="-350" y="14" width="20" height="26" as="geometry" />
        </mxCell>
        <mxCell id="7gchvuawiLb_LsRf-Ycw-74" value="*" style="text;align=left;verticalAlign=top;spacingLeft=4;spacingRight=4;overflow=hidden;rotatable=0;points=[[0,0.5],[1,0.5]];portConstraint=eastwest;rounded=0;shadow=0;html=0;" vertex="1" parent="1">
          <mxGeometry x="340" width="50" height="26" as="geometry" />
        </mxCell>
        <mxCell id="7gchvuawiLb_LsRf-Ycw-75" value="Organisateur" style="swimlane;fontStyle=1;align=center;verticalAlign=top;childLayout=stackLayout;horizontal=1;startSize=26;horizontalStack=0;resizeParent=1;resizeParentMax=0;resizeLast=0;collapsible=1;marginBottom=0;fillColor=#EA6B66;" vertex="1" parent="1">
          <mxGeometry x="-680" y="40" width="400" height="240" as="geometry" />
        </mxCell>
        <mxCell id="7gchvuawiLb_LsRf-Ycw-76" value="- prenomOrganisateur : String&#xa;- nomOrganisateur : String&#xa;- idOrganisateur : String" style="text;strokeColor=none;fillColor=none;align=left;verticalAlign=top;spacingLeft=4;spacingRight=4;overflow=hidden;rotatable=0;points=[[0,0.5],[1,0.5]];portConstraint=eastwest;" vertex="1" parent="7gchvuawiLb_LsRf-Ycw-75">
          <mxGeometry y="26" width="400" height="54" as="geometry" />
        </mxCell>
        <mxCell id="7gchvuawiLb_LsRf-Ycw-77" value="" style="line;strokeWidth=1;fillColor=none;align=left;verticalAlign=middle;spacingTop=-1;spacingLeft=3;spacingRight=3;rotatable=0;labelPosition=right;points=[];portConstraint=eastwest;" vertex="1" parent="7gchvuawiLb_LsRf-Ycw-75">
          <mxGeometry y="80" width="400" height="8" as="geometry" />
        </mxCell>
        <mxCell id="7gchvuawiLb_LsRf-Ycw-78" value="+ Organisateur(in prenomOrganisateur : String, in nom : String,&#xa;    in idOrganisateur : String)                                            CO&#xa;&#xa;+ getPrenomOrganisateur() : String&#xa;+ getNomOrganisateur() : String&#xa;+ getIdOrganisateur() : String&#xa;&#xa;+ setPrenomOrganisateur(in prenomOrganisateur : String) : void&#xa;+ setNomOrganisateur(in nomOrganisateur : String) : void&#xa;+ setIdOrganisateur(in idOrganisateur : String) : void" style="text;strokeColor=none;fillColor=none;align=left;verticalAlign=top;spacingLeft=4;spacingRight=4;overflow=hidden;rotatable=0;points=[[0,0.5],[1,0.5]];portConstraint=eastwest;" vertex="1" parent="7gchvuawiLb_LsRf-Ycw-75">
          <mxGeometry y="88" width="400" height="152" as="geometry" />
        </mxCell>
        <mxCell id="7gchvuawiLb_LsRf-Ycw-79" value="Adresse" style="swimlane;fontStyle=0;align=center;verticalAlign=top;childLayout=stackLayout;horizontal=1;startSize=26;horizontalStack=0;resizeParent=1;resizeLast=0;collapsible=1;marginBottom=0;rounded=0;shadow=0;strokeWidth=1;fillColor=#A680B8;" vertex="1" parent="1">
          <mxGeometry x="1360" y="520" width="520" height="360" as="geometry">
            <mxRectangle x="130" y="380" width="160" height="26" as="alternateBounds" />
          </mxGeometry>
        </mxCell>
        <mxCell id="7gchvuawiLb_LsRf-Ycw-80" value="- numero : int&#xa;- rue : String&#xa;- ville : String&#xa;- region : int&#xa;- pays : String&#xa;" style="text;align=left;verticalAlign=top;spacingLeft=4;spacingRight=4;overflow=hidden;rotatable=0;points=[[0,0.5],[1,0.5]];portConstraint=eastwest;" vertex="1" parent="7gchvuawiLb_LsRf-Ycw-79">
          <mxGeometry y="26" width="520" height="84" as="geometry" />
        </mxCell>
        <mxCell id="7gchvuawiLb_LsRf-Ycw-81" value="" style="line;html=1;strokeWidth=1;align=left;verticalAlign=middle;spacingTop=-1;spacingLeft=3;spacingRight=3;rotatable=0;labelPosition=right;points=[];portConstraint=eastwest;" vertex="1" parent="7gchvuawiLb_LsRf-Ycw-79">
          <mxGeometry y="110" width="520" height="8" as="geometry" />
        </mxCell>
        <mxCell id="7gchvuawiLb_LsRf-Ycw-82" value="+ Adresse(in numero : int, in rue : String, in ville : String, in region : int, in pays : String) CO&#xa;&#xa;+ getNumero() : int&#xa;+ getRue() : String&#xa;+ getVille() : String&#xa;+ getRegion() : int&#xa;+ getPays() : String&#xa;&#xa;+ setNumero(in numero : int)&#xa;+ setRue(in rue : String)&#xa;+ setVille(in ville : String)&#xa;+ setRegion(in region : int)&#xa;+ setPays(in pays : String)&#xa;&#xa;+ display() : void&#xa;+ modifier() : void" style="text;align=left;verticalAlign=top;spacingLeft=4;spacingRight=4;overflow=hidden;rotatable=0;points=[[0,0.5],[1,0.5]];portConstraint=eastwest;" vertex="1" parent="7gchvuawiLb_LsRf-Ycw-79">
          <mxGeometry y="118" width="520" height="242" as="geometry" />
        </mxCell>
        <mxCell id="7gchvuawiLb_LsRf-Ycw-83" value="1" style="text;html=1;align=center;verticalAlign=middle;resizable=0;points=[];autosize=1;strokeColor=none;fillColor=none;" vertex="1" parent="1">
          <mxGeometry x="1197" y="600" width="20" height="20" as="geometry" />
        </mxCell>
        <mxCell id="7gchvuawiLb_LsRf-Ycw-84" value="1" style="text;html=1;align=center;verticalAlign=middle;resizable=0;points=[];autosize=1;strokeColor=none;fillColor=none;" vertex="1" parent="1">
          <mxGeometry x="1330" y="600" width="20" height="20" as="geometry" />
        </mxCell>
        <mxCell id="7gchvuawiLb_LsRf-Ycw-85" value="1" style="text;html=1;align=center;verticalAlign=middle;resizable=0;points=[];autosize=1;strokeColor=none;fillColor=none;" vertex="1" parent="1">
          <mxGeometry x="1480" y="500" width="20" height="20" as="geometry" />
        </mxCell>
        <mxCell id="7gchvuawiLb_LsRf-Ycw-86" value="1" style="text;html=1;align=center;verticalAlign=middle;resizable=0;points=[];autosize=1;strokeColor=none;fillColor=none;" vertex="1" parent="1">
          <mxGeometry x="1200" y="84" width="20" height="20" as="geometry" />
        </mxCell>
        <mxCell id="7gchvuawiLb_LsRf-Ycw-87" value="" style="endArrow=open;endFill=1;endSize=12;html=1;rounded=0;entryX=0.309;entryY=0;entryDx=0;entryDy=0;entryPerimeter=0;exitX=0.999;exitY=0.279;exitDx=0;exitDy=0;exitPerimeter=0;" edge="1" parent="1" source="7gchvuawiLb_LsRf-Ycw-14" target="7gchvuawiLb_LsRf-Ycw-79">
          <mxGeometry width="160" relative="1" as="geometry">
            <mxPoint x="1210.000000000001" y="104" as="sourcePoint" />
            <mxPoint x="1480" y="104.49400000000014" as="targetPoint" />
            <Array as="points">
              <mxPoint x="1520" y="80" />
            </Array>
          </mxGeometry>
        </mxCell>
        <mxCell id="7gchvuawiLb_LsRf-Ycw-88" value="&lt;span style=&quot;font-size: 11px ; background-color: rgb(255 , 255 , 255)&quot;&gt;-adresse&lt;/span&gt;" style="text;html=1;align=center;verticalAlign=middle;resizable=0;points=[];autosize=1;strokeColor=none;fillColor=none;" vertex="1" parent="1">
          <mxGeometry x="1520" y="480" width="60" height="20" as="geometry" />
        </mxCell>
        <mxCell id="7gchvuawiLb_LsRf-Ycw-89" value="" style="endArrow=open;endFill=1;endSize=12;html=1;rounded=0;entryX=-0.003;entryY=0.647;entryDx=0;entryDy=0;entryPerimeter=0;" edge="1" parent="1" target="7gchvuawiLb_LsRf-Ycw-80">
          <mxGeometry width="160" relative="1" as="geometry">
            <mxPoint x="1200" y="600.0000000000005" as="sourcePoint" />
            <mxPoint x="1475.0000000000005" y="600.4939999999999" as="targetPoint" />
          </mxGeometry>
        </mxCell>
        <mxCell id="7gchvuawiLb_LsRf-Ycw-90" value="&lt;span style=&quot;font-size: 11px ; background-color: rgb(255 , 255 , 255)&quot;&gt;-adresse&lt;/span&gt;" style="text;html=1;align=center;verticalAlign=middle;resizable=0;points=[];autosize=1;strokeColor=none;fillColor=none;" vertex="1" parent="1">
          <mxGeometry x="1300" y="575" width="60" height="20" as="geometry" />
        </mxCell>
        <mxCell id="7gchvuawiLb_LsRf-Ycw-91" value="" style="group" vertex="1" connectable="0" parent="1">
          <mxGeometry x="160" y="104" width="120" as="geometry" />
        </mxCell>
        <mxCell id="7gchvuawiLb_LsRf-Ycw-92" value="" style="group" vertex="1" connectable="0" parent="7gchvuawiLb_LsRf-Ycw-91">
          <mxGeometry width="120" as="geometry" />
        </mxCell>
        <mxCell id="7gchvuawiLb_LsRf-Ycw-93" value="" style="endArrow=open;endFill=1;endSize=12;html=1;rounded=0;" edge="1" parent="7gchvuawiLb_LsRf-Ycw-92">
          <mxGeometry width="160" relative="1" as="geometry">
            <mxPoint x="120" as="sourcePoint" />
            <mxPoint as="targetPoint" />
          </mxGeometry>
        </mxCell>
        <mxCell id="7gchvuawiLb_LsRf-Ycw-94" value="" style="endArrow=open;endFill=1;endSize=12;html=1;rounded=0;" edge="1" parent="7gchvuawiLb_LsRf-Ycw-91">
          <mxGeometry width="160" relative="1" as="geometry">
            <mxPoint as="sourcePoint" />
            <mxPoint x="120" as="targetPoint" />
          </mxGeometry>
        </mxCell>
        <mxCell id="7gchvuawiLb_LsRf-Ycw-95" value="" style="endArrow=open;endFill=1;endSize=12;html=1;rounded=0;" edge="1" parent="1">
          <mxGeometry width="160" relative="1" as="geometry">
            <mxPoint x="-199.99999999999955" y="519.9999999999995" as="sourcePoint" />
            <mxPoint x="280" y="199.99999999999955" as="targetPoint" />
            <Array as="points">
              <mxPoint x="260" y="520" />
              <mxPoint x="260" y="200" />
            </Array>
          </mxGeometry>
        </mxCell>
        <mxCell id="7gchvuawiLb_LsRf-Ycw-96" value="" style="endArrow=open;endFill=1;endSize=12;html=1;rounded=0;exitX=0.999;exitY=0.279;exitDx=0;exitDy=0;exitPerimeter=0;entryX=0;entryY=0.277;entryDx=0;entryDy=0;entryPerimeter=0;" edge="1" parent="1" target="7gchvuawiLb_LsRf-Ycw-14">
          <mxGeometry width="160" relative="1" as="geometry">
            <mxPoint x="599.9969999999994" y="78.9680000000003" as="sourcePoint" />
            <mxPoint x="921.0399999999994" y="519.03" as="targetPoint" />
            <Array as="points">
              <mxPoint x="730" y="80" />
            </Array>
          </mxGeometry>
        </mxCell>
        <mxCell id="7gchvuawiLb_LsRf-Ycw-97" value="&lt;span style=&quot;color: rgb(0 , 0 , 0) ; font-family: &amp;#34;helvetica&amp;#34; ; font-size: 12px ; font-style: normal ; font-weight: 400 ; letter-spacing: normal ; text-align: center ; text-indent: 0px ; text-transform: none ; word-spacing: 0px ; background-color: rgb(248 , 249 , 250) ; display: inline ; float: none&quot;&gt;-compte&lt;/span&gt;" style="text;whiteSpace=wrap;html=1;" vertex="1" parent="1">
          <mxGeometry x="-180" y="490" width="90" height="30" as="geometry" />
        </mxCell>
        <mxCell id="7gchvuawiLb_LsRf-Ycw-98" value="&lt;span style=&quot;color: rgb(0 , 0 , 0) ; font-family: &amp;#34;helvetica&amp;#34; ; font-size: 12px ; font-style: normal ; font-weight: 400 ; letter-spacing: normal ; text-align: center ; text-indent: 0px ; text-transform: none ; word-spacing: 0px ; background-color: rgb(248 , 249 , 250) ; display: inline ; float: none&quot;&gt;-propriétaire&lt;/span&gt;" style="text;whiteSpace=wrap;html=1;" vertex="1" parent="1">
          <mxGeometry x="210" y="170" width="90" height="30" as="geometry" />
        </mxCell>
        <mxCell id="7gchvuawiLb_LsRf-Ycw-99" value="1" style="text;align=left;verticalAlign=top;spacingLeft=4;spacingRight=4;overflow=hidden;rotatable=0;points=[[0,0.5],[1,0.5]];portConstraint=eastwest;rounded=0;shadow=0;html=0;" vertex="1" parent="1">
          <mxGeometry x="-180" y="520" width="20" height="26" as="geometry" />
        </mxCell>
        <mxCell id="7gchvuawiLb_LsRf-Ycw-100" value="1" style="text;align=left;verticalAlign=top;spacingLeft=4;spacingRight=4;overflow=hidden;rotatable=0;points=[[0,0.5],[1,0.5]];portConstraint=eastwest;rounded=0;shadow=0;html=0;" vertex="1" parent="1">
          <mxGeometry x="240" y="200" width="20" height="26" as="geometry" />
        </mxCell>
        <mxCell id="7gchvuawiLb_LsRf-Ycw-101" value="&lt;span style=&quot;color: rgb(0 , 0 , 0) ; font-family: &amp;#34;helvetica&amp;#34; ; font-size: 12px ; font-style: normal ; font-weight: 400 ; letter-spacing: normal ; text-align: center ; text-indent: 0px ; text-transform: none ; word-spacing: 0px ; background-color: rgb(248 , 249 , 250) ; display: inline ; float: none&quot;&gt;-propriétaire&lt;/span&gt;" style="text;whiteSpace=wrap;html=1;" vertex="1" parent="1">
          <mxGeometry x="-480" y="287" width="90" height="30" as="geometry" />
        </mxCell>
        <mxCell id="7gchvuawiLb_LsRf-Ycw-102" value="&lt;span style=&quot;color: rgb(0 , 0 , 0) ; font-family: &amp;#34;helvetica&amp;#34; ; font-size: 12px ; font-style: normal ; font-weight: 400 ; letter-spacing: normal ; text-align: center ; text-indent: 0px ; text-transform: none ; word-spacing: 0px ; background-color: rgb(248 , 249 , 250) ; display: inline ; float: none&quot;&gt;-compte&lt;/span&gt;" style="text;whiteSpace=wrap;html=1;" vertex="1" parent="1">
          <mxGeometry x="-458" y="334" width="90" height="30" as="geometry" />
        </mxCell>
        <mxCell id="7gchvuawiLb_LsRf-Ycw-103" value="1" style="text;align=left;verticalAlign=top;spacingLeft=4;spacingRight=4;overflow=hidden;rotatable=0;points=[[0,0.5],[1,0.5]];portConstraint=eastwest;rounded=0;shadow=0;html=0;" vertex="1" parent="1">
          <mxGeometry x="-180" y="40" width="20" height="26" as="geometry" />
        </mxCell>
        <mxCell id="7gchvuawiLb_LsRf-Ycw-104" value="&lt;span style=&quot;color: rgb(0 , 0 , 0) ; font-family: &amp;#34;helvetica&amp;#34; ; font-size: 12px ; font-style: normal ; font-weight: 400 ; letter-spacing: normal ; text-align: center ; text-indent: 0px ; text-transform: none ; word-spacing: 0px ; background-color: rgb(248 , 249 , 250) ; display: inline ; float: none&quot;&gt;-accède&lt;/span&gt;" style="text;whiteSpace=wrap;html=1;" vertex="1" parent="1">
          <mxGeometry x="-340" y="-70" width="90" height="30" as="geometry" />
        </mxCell>
        <mxCell id="7gchvuawiLb_LsRf-Ycw-105" value="PlageHoraire" style="swimlane;fontStyle=0;align=center;verticalAlign=top;childLayout=stackLayout;horizontal=1;startSize=26;horizontalStack=0;resizeParent=1;resizeLast=0;collapsible=1;marginBottom=0;rounded=0;shadow=0;strokeWidth=1;fillColor=#7EA6E0;" vertex="1" parent="1">
          <mxGeometry x="-560" y="-560" width="520" height="400" as="geometry">
            <mxRectangle x="130" y="380" width="160" height="26" as="alternateBounds" />
          </mxGeometry>
        </mxCell>
        <mxCell id="7gchvuawiLb_LsRf-Ycw-106" value="- heure1PH : int&#xa;- minute1PH : int&#xa;- heure2PH : int&#xa;- minute2PH : int" style="text;align=left;verticalAlign=top;spacingLeft=4;spacingRight=4;overflow=hidden;rotatable=0;points=[[0,0.5],[1,0.5]];portConstraint=eastwest;" vertex="1" parent="7gchvuawiLb_LsRf-Ycw-105">
          <mxGeometry y="26" width="520" height="74" as="geometry" />
        </mxCell>
        <mxCell id="7gchvuawiLb_LsRf-Ycw-107" value="" style="line;html=1;strokeWidth=1;align=left;verticalAlign=middle;spacingTop=-1;spacingLeft=3;spacingRight=3;rotatable=0;labelPosition=right;points=[];portConstraint=eastwest;" vertex="1" parent="7gchvuawiLb_LsRf-Ycw-105">
          <mxGeometry y="100" width="520" height="8" as="geometry" />
        </mxCell>
        <mxCell id="7gchvuawiLb_LsRf-Ycw-108" value="+ PlagueHoraire(in heure1 : int, in minute1 : int, in heure2 : int, in minute 2 : int)                     CO&#xa;&#xa;+ getHeure1PH() : int&#xa;+ getHeure2PH() : int&#xa;+ getminute1PH() : int&#xa;+ getminute2PH() : int&#xa;&#xa;+ setHeure1PH(in heure1 : int) : void&#xa;+ setHeure2PH(in heure2 : int) : void&#xa;+ setMinute1PH(in heure1 : int) : void&#xa;+ setMinute2PH(in heure2 : int) : void&#xa;&#xa;+ display() : void&#xa;+ modifier() : void&#xa;+ supprimer() : void&#xa;" style="text;align=left;verticalAlign=top;spacingLeft=4;spacingRight=4;overflow=hidden;rotatable=0;points=[[0,0.5],[1,0.5]];portConstraint=eastwest;" vertex="1" parent="7gchvuawiLb_LsRf-Ycw-105">
          <mxGeometry y="108" width="520" height="242" as="geometry" />
        </mxCell>
        <mxCell id="7gchvuawiLb_LsRf-Ycw-110" value="Zone" style="swimlane;fontStyle=0;align=center;verticalAlign=top;childLayout=stackLayout;horizontal=1;startSize=26;horizontalStack=0;resizeParent=1;resizeLast=0;collapsible=1;marginBottom=0;rounded=0;shadow=0;strokeWidth=1;fillColor=#7EA6E0;" vertex="1" parent="1">
          <mxGeometry x="840" y="-720" width="640" height="360" as="geometry">
            <mxRectangle x="130" y="380" width="160" height="26" as="alternateBounds" />
          </mxGeometry>
        </mxCell>
        <mxCell id="7gchvuawiLb_LsRf-Ycw-111" value="- nbrEmplacementParking : int&#xa;- nbrEmplacementReserve : int&#xa;- nbrEmplacementLibre : int&#xa;- estPleine : boolean" style="text;align=left;verticalAlign=top;spacingLeft=4;spacingRight=4;overflow=hidden;rotatable=0;points=[[0,0.5],[1,0.5]];portConstraint=eastwest;" vertex="1" parent="7gchvuawiLb_LsRf-Ycw-110">
          <mxGeometry y="26" width="640" height="74" as="geometry" />
        </mxCell>
        <mxCell id="7gchvuawiLb_LsRf-Ycw-112" value="" style="line;html=1;strokeWidth=1;align=left;verticalAlign=middle;spacingTop=-1;spacingLeft=3;spacingRight=3;rotatable=0;labelPosition=right;points=[];portConstraint=eastwest;" vertex="1" parent="7gchvuawiLb_LsRf-Ycw-110">
          <mxGeometry y="100" width="640" height="8" as="geometry" />
        </mxCell>
        <mxCell id="7gchvuawiLb_LsRf-Ycw-113" value="+ FamilleAccueil(in nbrEmplacementParking : int, in nbrEmplacementReserve : int, in nbrEmplacement Libre,&#xa;    in estPleine : boolean  )                                                                                                                                            CO&#xa;&#xa;+ getNbrEmplacementParking() : int&#xa;+ getNbrEmplacementReserve() : int&#xa;+ getNbrEmplacementLibre() : int&#xa;+ getEstPleine() : boolean&#xa;&#xa;+ setNbrEmplacementParking(in nbrEmplacementParking : int) : void&#xa;+ setNbrEmplacementReserve(in nbrEmplacementReserve : int) : void&#xa;+ setNbrEmplacementLibre(in nbrEmplacementLibre : int) : void&#xa;+ setEstPleine(in estPleine : boolean) : void&#xa;&#xa;+ display() : void&#xa;+ modifier() : void&#xa;+ supprimer() : void&#xa;+ calculerEmplacement(in longueurVehicule : double, in largeurVehicule : double) : void" style="text;align=left;verticalAlign=top;spacingLeft=4;spacingRight=4;overflow=hidden;rotatable=0;points=[[0,0.5],[1,0.5]];portConstraint=eastwest;" vertex="1" parent="7gchvuawiLb_LsRf-Ycw-110">
          <mxGeometry y="108" width="640" height="252" as="geometry" />
        </mxCell>
        <mxCell id="7gchvuawiLb_LsRf-Ycw-114" value="Vehicule" style="swimlane;fontStyle=0;align=center;verticalAlign=top;childLayout=stackLayout;horizontal=1;startSize=26;horizontalStack=0;resizeParent=1;resizeLast=0;collapsible=1;marginBottom=0;rounded=0;shadow=0;strokeWidth=1;fillColor=#7EA6E0;" vertex="1" parent="1">
          <mxGeometry x="-600" y="-960" width="560" height="360" as="geometry">
            <mxRectangle x="130" y="380" width="160" height="26" as="alternateBounds" />
          </mxGeometry>
        </mxCell>
        <mxCell id="7gchvuawiLb_LsRf-Ycw-115" value="- Modele : String&#xa;- marque : String&#xa;- longueur : double&#xa;- largeur : double" style="text;align=left;verticalAlign=top;spacingLeft=4;spacingRight=4;overflow=hidden;rotatable=0;points=[[0,0.5],[1,0.5]];portConstraint=eastwest;" vertex="1" parent="7gchvuawiLb_LsRf-Ycw-114">
          <mxGeometry y="26" width="560" height="84" as="geometry" />
        </mxCell>
        <mxCell id="7gchvuawiLb_LsRf-Ycw-116" value="" style="line;html=1;strokeWidth=1;align=left;verticalAlign=middle;spacingTop=-1;spacingLeft=3;spacingRight=3;rotatable=0;labelPosition=right;points=[];portConstraint=eastwest;" vertex="1" parent="7gchvuawiLb_LsRf-Ycw-114">
          <mxGeometry y="110" width="560" height="8" as="geometry" />
        </mxCell>
        <mxCell id="7gchvuawiLb_LsRf-Ycw-117" value="+ PlagueHoraire(in modele : String, in marque : String, in longueur : double, in largeur : double)        CO&#xa;&#xa;+ getModele() : String&#xa;+ getMarque() : String&#xa;+ getLongueur() : double&#xa;+ getLargeur() : double&#xa;&#xa;+ setModele(in modele : String) : void&#xa;+ setMarque(in marque : String) : void&#xa;+ setLongueur(in longueur : double) : void&#xa;+ setLargeur(in largeur : double) : void&#xa;&#xa;+ display() : void&#xa;+ modifier() : void&#xa;+ supprimer() : void&#xa;" style="text;align=left;verticalAlign=top;spacingLeft=4;spacingRight=4;overflow=hidden;rotatable=0;points=[[0,0.5],[1,0.5]];portConstraint=eastwest;" vertex="1" parent="7gchvuawiLb_LsRf-Ycw-114">
          <mxGeometry y="118" width="560" height="242" as="geometry" />
        </mxCell>
        <mxCell id="7gchvuawiLb_LsRf-Ycw-119" value="" style="endArrow=open;endFill=1;endSize=12;html=1;rounded=0;exitX=0.5;exitY=0;exitDx=0;exitDy=0;entryX=1;entryY=0.003;entryDx=0;entryDy=0;entryPerimeter=0;" edge="1" parent="1" source="7gchvuawiLb_LsRf-Ycw-1" target="7gchvuawiLb_LsRf-Ycw-117">
          <mxGeometry width="160" relative="1" as="geometry">
            <mxPoint x="-10.003000000000384" y="-960.002" as="sourcePoint" />
            <mxPoint x="311" y="-1060" as="targetPoint" />
            <Array as="points">
              <mxPoint x="440" y="-840" />
            </Array>
          </mxGeometry>
        </mxCell>
        <mxCell id="7gchvuawiLb_LsRf-Ycw-120" value="&lt;span style=&quot;font-size: 11px ; background-color: rgb(255 , 255 , 255)&quot;&gt;-vehicule&lt;/span&gt;" style="text;html=1;align=center;verticalAlign=middle;resizable=0;points=[];autosize=1;strokeColor=none;fillColor=none;" vertex="1" parent="1">
          <mxGeometry x="-30" y="-870" width="60" height="20" as="geometry" />
        </mxCell>
        <mxCell id="7gchvuawiLb_LsRf-Ycw-122" value="&lt;span style=&quot;font-size: 11px ; background-color: rgb(255 , 255 , 255)&quot;&gt;-&lt;/span&gt;&lt;span style=&quot;font-size: 11px&quot;&gt;propriétaire&lt;/span&gt;" style="text;html=1;align=center;verticalAlign=middle;resizable=0;points=[];autosize=1;strokeColor=none;fillColor=none;" vertex="1" parent="1">
          <mxGeometry x="365" y="-750" width="70" height="20" as="geometry" />
        </mxCell>
        <mxCell id="7gchvuawiLb_LsRf-Ycw-123" value="1" style="text;html=1;align=center;verticalAlign=middle;resizable=0;points=[];autosize=1;strokeColor=none;fillColor=none;" vertex="1" parent="1">
          <mxGeometry x="450" y="-750" width="20" height="20" as="geometry" />
        </mxCell>
        <mxCell id="7gchvuawiLb_LsRf-Ycw-126" value="*" style="text;html=1;align=center;verticalAlign=middle;resizable=0;points=[];autosize=1;strokeColor=none;fillColor=none;" vertex="1" parent="1">
          <mxGeometry x="720" y="-560" width="20" height="20" as="geometry" />
        </mxCell>
        <mxCell id="7gchvuawiLb_LsRf-Ycw-127" value="1" style="text;html=1;align=center;verticalAlign=middle;resizable=0;points=[];autosize=1;strokeColor=none;fillColor=none;" vertex="1" parent="1">
          <mxGeometry x="-20" y="-840" width="20" height="20" as="geometry" />
        </mxCell>
        <mxCell id="7gchvuawiLb_LsRf-Ycw-128" value="1" style="endArrow=open;html=1;endSize=12;startArrow=diamondThin;startSize=14;startFill=1;edgeStyle=orthogonalEdgeStyle;align=left;verticalAlign=bottom;rounded=0;entryX=1.002;entryY=0.337;entryDx=0;entryDy=0;entryPerimeter=0;exitX=0;exitY=0.5;exitDx=0;exitDy=0;" edge="1" parent="1" source="7gchvuawiLb_LsRf-Ycw-4" target="7gchvuawiLb_LsRf-Ycw-108">
          <mxGeometry x="-1" y="3" relative="1" as="geometry">
            <mxPoint x="150" y="-361" as="sourcePoint" />
            <mxPoint x="150" y="-360" as="targetPoint" />
          </mxGeometry>
        </mxCell>
        <mxCell id="7gchvuawiLb_LsRf-Ycw-130" value="1" style="text;html=1;align=center;verticalAlign=middle;resizable=0;points=[];autosize=1;strokeColor=none;fillColor=none;" vertex="1" parent="1">
          <mxGeometry x="130" y="-400" width="20" height="20" as="geometry" />
        </mxCell>
        <mxCell id="7gchvuawiLb_LsRf-Ycw-131" value="1" style="text;html=1;align=center;verticalAlign=middle;resizable=0;points=[];autosize=1;strokeColor=none;fillColor=none;" vertex="1" parent="1">
          <mxGeometry x="-40" y="-400" width="20" height="20" as="geometry" />
        </mxCell>
      </root>
    </mxGraphModel>
  </diagram>
</mxfile>
